<svg width="108" height="17" viewBox="0 0 108 17" fill="none" xmlns="http://www.w3.org/2000/svg">
<g clip-path="url(#clip0)">
<path fill-rule="evenodd" clip-rule="evenodd" d="M77.439 15.7809H82.8905C83.0462 15.781 83.1956 15.7192 83.3059 15.6091C83.4161 15.4991 83.4781 15.3497 83.4783 15.1939V13.5185C83.4783 13.4413 83.4631 13.3648 83.4335 13.2935C83.4039 13.2222 83.3606 13.1575 83.306 13.1029C83.2513 13.0484 83.1865 13.0052 83.1152 12.9758C83.0438 12.9464 82.9674 12.9314 82.8903 12.9315H78.3267C75.0221 12.9315 74.3645 11.8554 74.3645 8.25427C74.3645 5.82796 74.5841 2.95892 78.3267 2.95892H82.8907C82.9678 2.95896 83.0442 2.94379 83.1155 2.91427C83.1868 2.88476 83.2516 2.84147 83.3062 2.78688C83.3608 2.7323 83.4041 2.66749 83.4336 2.59616C83.4631 2.52483 83.4783 2.44838 83.4783 2.37118V0.806925C83.4783 0.729712 83.4632 0.653246 83.4336 0.581902C83.4041 0.510557 83.3609 0.445735 83.3063 0.391145C83.2517 0.336555 83.1869 0.293268 83.1156 0.263761C83.0443 0.234255 82.9678 0.219107 82.8907 0.219187H77.439C71.839 0.219187 70.741 4.82195 70.741 8.25427C70.741 12.8219 73.1567 15.7809 77.439 15.7809ZM64.8115 15.1945C64.812 15.3503 64.8741 15.4995 64.9844 15.6094C65.0947 15.7193 65.244 15.781 65.3997 15.7809H67.7372C67.8928 15.7809 68.0421 15.7193 68.1524 15.6093C68.2626 15.4994 68.3248 15.3502 68.3253 15.1945V0.80552C68.3249 0.649781 68.2627 0.500569 68.1525 0.390639C68.0422 0.280709 67.8928 0.219046 67.7372 0.219187H65.3997C65.244 0.219094 65.0947 0.280772 64.9844 0.390691C64.8742 0.500611 64.812 0.649795 64.8115 0.80552V15.1945ZM44.937 15.1945C44.937 15.3499 44.9986 15.499 45.1084 15.6089C45.2182 15.7189 45.3672 15.7807 45.5225 15.7809H47.6266C47.7038 15.7807 47.7801 15.7653 47.8513 15.7356C47.9226 15.7058 47.9872 15.6623 48.0416 15.6076C48.096 15.5528 48.139 15.4878 48.1683 15.4164C48.1976 15.345 48.2125 15.2685 48.2121 15.1913V4.31564C48.2121 3.99002 48.2922 3.97783 48.3892 4.28331L51.8661 15.2236C51.9242 15.3816 52.0278 15.5188 52.1638 15.618C52.2998 15.7171 52.4621 15.7738 52.6302 15.7809H54.7398C54.9079 15.7735 55.07 15.7167 55.206 15.6176C55.3419 15.5185 55.4456 15.3814 55.504 15.2236L58.9808 4.28331C59.0787 3.97555 59.1579 3.98902 59.1579 4.31564V15.1913C59.1577 15.2687 59.1727 15.3454 59.2022 15.417C59.2317 15.4885 59.275 15.5536 59.3297 15.6084C59.3843 15.6632 59.4493 15.7066 59.5208 15.7362C59.5923 15.7658 59.6689 15.781 59.7463 15.7809H61.6976C61.8533 15.781 62.0027 15.7193 62.113 15.6094C62.2233 15.4995 62.2855 15.3503 62.286 15.1945V0.80552C62.286 0.728328 62.2707 0.651908 62.241 0.580637C62.2114 0.509365 62.168 0.444643 62.1133 0.390178C62.0587 0.335712 61.9938 0.292573 61.9224 0.263232C61.8511 0.23389 61.7746 0.218923 61.6975 0.219187H57.9952C57.8259 0.226738 57.6625 0.283678 57.5252 0.382989C57.3878 0.4823 57.2825 0.619643 57.2223 0.778092L53.7958 11.1672C53.694 11.4758 53.5271 11.475 53.425 11.171L49.9311 0.774182C49.8694 0.616377 49.7632 0.479905 49.6255 0.381371C49.4877 0.282838 49.3243 0.226491 49.1551 0.219187H45.5265C45.3707 0.218913 45.2211 0.280489 45.1106 0.390408C45.0001 0.500327 44.9376 0.649613 44.937 0.80552V15.1945ZM35.0546 13.3699C38.5683 13.3699 39.337 11.1781 39.337 8.04495V7.99999C39.337 4.71232 38.4585 2.63014 35.1057 2.63014C31.7529 2.63014 31.1017 5.26028 31.1017 7.95508V8.00001C31.1017 10.1918 31.5409 13.3699 35.0546 13.3699ZM35.0607 16C29.3635 16 27.4781 12.4754 27.4781 8.01749C27.4781 3.4901 29.235 0 35.1057 0C40.9765 0 42.8507 2.98362 42.8507 7.92789C42.8507 13.2179 40.7579 16 35.0607 16L35.0607 16ZM19.3594 15.7809C19.282 15.7811 19.2053 15.766 19.1338 15.7364C19.0622 15.7069 18.9972 15.6634 18.9425 15.6086C18.8878 15.5538 18.8444 15.4887 18.815 15.4171C18.7856 15.3454 18.7706 15.2687 18.7709 15.1912V3.61541C18.7713 3.45957 18.7099 3.30994 18.6001 3.19939C18.4903 3.08884 18.3412 3.0264 18.1854 3.02579H14.3381C14.1825 3.02534 14.0334 2.96313 13.9236 2.85281C13.8139 2.74249 13.7523 2.5931 13.7526 2.43743V0.807545C13.7521 0.65201 13.8133 0.502646 13.9229 0.392308C14.0325 0.28197 14.1814 0.219697 14.3368 0.219187H26.5645C26.7199 0.2198 26.8687 0.282107 26.9783 0.392423C27.0878 0.50274 27.1491 0.652044 27.1487 0.807545V2.4374C27.1486 2.59328 27.0868 2.74276 26.9767 2.85306C26.8666 2.96336 26.7173 3.02547 26.5615 3.02576H22.8275C22.7501 3.02562 22.6735 3.04078 22.6021 3.07039C22.5306 3.09999 22.4658 3.14345 22.4112 3.19826C22.3566 3.25307 22.3134 3.31815 22.284 3.38974C22.2547 3.46133 22.2398 3.53802 22.2403 3.61539V15.1912C22.2405 15.2687 22.2255 15.3454 22.1961 15.417C22.1666 15.4886 22.1233 15.5537 22.0686 15.6085C22.0139 15.6633 21.9489 15.7067 21.8773 15.7363C21.8058 15.7659 21.7291 15.781 21.6517 15.7809H19.3594ZM0.399711 15.7809C0.0756989 15.7809 -0.0827912 15.5364 0.0432886 15.2407L6.21666 0.759376C6.29189 0.604359 6.4074 0.472427 6.55108 0.377393C6.69476 0.282358 6.86133 0.227716 7.03336 0.219187H9.27179C9.59566 0.219187 9.96241 0.463619 10.0885 0.759376L16.2619 15.2407C16.389 15.539 16.2319 15.7809 15.9026 15.7809H13.4626C13.2912 15.7725 13.1255 15.7169 12.9837 15.6202C12.842 15.5234 12.7298 15.3893 12.6594 15.2328L8.25932 3.94535C8.14132 3.64268 7.95172 3.64464 7.8375 3.94535L3.55033 15.2328C3.48189 15.389 3.37124 15.5231 3.23082 15.62C3.09039 15.7168 2.92575 15.7725 2.75541 15.7809H0.399711Z" fill="#242528"/>
</g>
<path d="M104.339 16.3814C106.361 16.3814 108 14.7636 108 12.768C108 10.7723 106.361 9.15454 104.339 9.15454C102.318 9.15454 100.679 10.7723 100.679 12.768C100.679 14.7636 102.318 16.3814 104.339 16.3814Z" fill="#F2571F"/>
<path fill-rule="evenodd" clip-rule="evenodd" d="M96.9045 8.45953C97.3893 7.59606 99.614 7.34265 100.574 6.89214C101.848 6.329 102.723 5.07134 102.732 3.61658C102.58 -1.11375 95.7541 -1.24515 95.4118 3.46641C95.3072 4.69592 96.4481 6.86398 95.8492 7.87762C95.7161 8.09349 95.4594 8.39383 94.6322 8.69417C93.7195 9.03205 92.5882 9.17283 91.742 9.69842C87.768 12.3264 91.2667 18.1173 95.5069 15.9023C96.7809 15.1702 97.4559 13.7999 97.3228 12.4296C97.2467 11.3503 96.3435 9.31361 96.9045 8.45953Z" fill="#F2571F"/>
<defs>
<clipPath id="clip0">
<rect width="83.4783" height="16" fill="white"/>
</clipPath>
</defs>
</svg>
