<?xml version="1.0" encoding="UTF-8" standalone="no"?><!DOCTYPE svg PUBLIC "-//W3C//DTD SVG 1.1//EN" "http://www.w3.org/Graphics/SVG/1.1/DTD/svg11.dtd"><svg width="100%" height="100%" viewBox="0 0 72 36" version="1.1" xmlns="http://www.w3.org/2000/svg" xmlns:xlink="http://www.w3.org/1999/xlink" xml:space="preserve" xmlns:serif="http://www.serif.com/" style="fill-rule:evenodd;clip-rule:evenodd;stroke-linejoin:round;stroke-miterlimit:1.41421;"><g id="Layer1"><rect x="-124.977" y="-95.583" width="316.246" height="231.443" style="fill:#332f2f;"/></g><g id="Ebene-1" serif:id="Ebene 1"><path d="M15.346,17.037c0,1.599 -1.066,2.63 -2.328,2.63c-1.261,0 -2.31,-1.048 -2.31,-2.63l0,-0.036c0,-1.58 1.049,-2.629 2.31,-2.629c1.262,0 2.328,1.049 2.328,2.629l0,0.036Zm-1.635,-4.957c-1.403,0 -2.31,0.657 -2.967,1.546l0,-0.125c0,-0.746 -0.604,-1.35 -1.35,-1.35c-0.746,0 -1.35,0.604 -1.35,1.35l0,9.879c0,0.746 0.604,1.35 1.35,1.35c0.746,0 1.35,-0.604 1.35,-1.35l0,-2.843c0.64,0.764 1.528,1.422 2.967,1.422c2.256,0 4.335,-1.742 4.335,-4.922l0,-0.036c0,-3.18 -2.114,-4.921 -4.335,-4.921" style="fill:#fff;fill-rule:nonzero;"/><path d="M26.479,12.151c-0.693,0 -1.084,0.462 -1.297,1.031l-1.99,5.525l-2.061,-5.543c-0.231,-0.639 -0.621,-1.013 -1.297,-1.013c-0.746,0 -1.332,0.533 -1.332,1.297c0,0.178 0.071,0.444 0.142,0.622l3.251,7.533l-0.089,0.213c-0.248,0.48 -0.479,0.569 -0.959,0.569c-0.195,0 -0.337,-0.035 -0.568,-0.107c-0.107,-0.035 -0.231,-0.071 -0.445,-0.071c-0.55,0 -1.066,0.444 -1.066,1.102c0,0.657 0.462,0.977 0.853,1.119c0.444,0.16 0.871,0.249 1.475,0.249c1.616,0 2.416,-0.729 3.216,-2.665l3.322,-7.977c0.053,-0.125 0.124,-0.427 0.124,-0.64c0,-0.711 -0.586,-1.244 -1.279,-1.244" style="fill:#fff;fill-rule:nonzero;"/><path d="M40.118,12.08c-1.297,0 -2.292,0.533 -3.127,1.51c-0.498,-0.959 -1.439,-1.51 -2.683,-1.51c-1.368,0 -2.185,0.729 -2.807,1.528l0,-0.107c0,-0.746 -0.604,-1.35 -1.35,-1.35c-0.746,0 -1.35,0.604 -1.35,1.35l0,7.036c0,0.746 0.604,1.35 1.35,1.35c0.746,0 1.35,-0.604 1.35,-1.35l0,-4.068c0,-1.28 0.622,-1.937 1.635,-1.937c1.012,0 1.581,0.657 1.581,1.937l0,4.068c0,0.746 0.604,1.35 1.35,1.35c0.746,0 1.35,-0.604 1.35,-1.35l0,-4.068c0,-1.28 0.622,-1.937 1.635,-1.937c1.013,0 1.581,0.657 1.581,1.937l0,4.068c0,0.746 0.604,1.35 1.35,1.35c0.747,0 1.351,-0.604 1.351,-1.35l0,-4.957c0,-2.292 -1.208,-3.5 -3.216,-3.5" style="fill:#fff;fill-rule:nonzero;"/><path d="M60.722,19.594c-0.983,0 -2.783,-1.474 -3.918,-2.61c1.135,-1.137 2.935,-2.611 3.918,-2.611c1.439,0 2.61,1.171 2.61,2.611c0,1.439 -1.171,2.61 -2.61,2.61m-10.887,0c-1.439,0 -2.61,-1.171 -2.61,-2.61c0,-1.44 1.171,-2.611 2.61,-2.611c0.983,0 2.783,1.474 3.918,2.611c-1.135,1.136 -2.935,2.61 -3.918,2.61m10.887,-7.504c-1.685,0 -3.822,1.714 -5.443,3.306c-1.622,-1.591 -3.759,-3.306 -5.444,-3.306c-2.698,0 -4.893,2.195 -4.893,4.894c0,2.698 2.195,4.893 4.893,4.893c1.685,0 3.822,-1.714 5.444,-3.305c1.621,1.591 3.758,3.305 5.443,3.305c2.698,0 4.893,-2.195 4.893,-4.893c0,-2.699 -2.195,-4.894 -4.893,-4.894" style="fill:#fff;fill-rule:nonzero;"/></g></svg>